<mxfile host="Electron" agent="Mozilla/5.0 (Macintosh; Intel Mac OS X 10_15_7) AppleWebKit/537.36 (KHTML, like Gecko) draw.io/24.7.17 Chrome/128.0.6613.36 Electron/32.0.1 Safari/537.36" version="24.7.17">
  <diagram name="Page-1" id="_gRGWOFDqU3hSQWJzQTY">
    <mxGraphModel dx="1012" dy="1805" grid="1" gridSize="10" guides="1" tooltips="1" connect="1" arrows="1" fold="1" page="1" pageScale="1" pageWidth="850" pageHeight="1100" background="none" math="1" shadow="0">
      <root>
        <mxCell id="0" />
        <mxCell id="1" parent="0" />
        <mxCell id="0vuY_zB4OoL36OcjDB_b-94" value="" style="rounded=1;whiteSpace=wrap;html=1;arcSize=7;fillColor=#f5f5f5;fontColor=#333333;strokeColor=#666666;" parent="1" vertex="1">
          <mxGeometry x="329.97" y="-420" width="410.03" height="70" as="geometry" />
        </mxCell>
        <mxCell id="SLpwjg63hdyZRQU6lq9K-11" style="edgeStyle=orthogonalEdgeStyle;rounded=0;orthogonalLoop=1;jettySize=auto;html=1;entryX=0;entryY=0.5;entryDx=0;entryDy=0;" edge="1" parent="1" source="SLpwjg63hdyZRQU6lq9K-1" target="SLpwjg63hdyZRQU6lq9K-2">
          <mxGeometry relative="1" as="geometry" />
        </mxCell>
        <mxCell id="SLpwjg63hdyZRQU6lq9K-1" value="&lt;span&gt;1. Tiền xử lý&lt;/span&gt;" style="rounded=1;whiteSpace=wrap;html=1;fillColor=#e1d5e7;strokeColor=#9673a6;fontFamily=SVN-Segoe UI;fontStyle=1" vertex="1" parent="1">
          <mxGeometry x="128.9" y="-400" width="89.9" height="40" as="geometry" />
        </mxCell>
        <mxCell id="SLpwjg63hdyZRQU6lq9K-12" style="edgeStyle=orthogonalEdgeStyle;rounded=0;orthogonalLoop=1;jettySize=auto;html=1;" edge="1" parent="1" source="SLpwjg63hdyZRQU6lq9K-2" target="SLpwjg63hdyZRQU6lq9K-10">
          <mxGeometry relative="1" as="geometry" />
        </mxCell>
        <mxCell id="SLpwjg63hdyZRQU6lq9K-2" value="2. Xử lý&lt;div&gt;đặc trưng&lt;/div&gt;" style="rounded=1;whiteSpace=wrap;html=1;fillColor=#ffe6cc;strokeColor=#d79b00;fontFamily=SVN-Segoe UI;" vertex="1" parent="1">
          <mxGeometry x="240" y="-400" width="80" height="40" as="geometry" />
        </mxCell>
        <mxCell id="SLpwjg63hdyZRQU6lq9K-25" style="edgeStyle=orthogonalEdgeStyle;rounded=0;orthogonalLoop=1;jettySize=auto;html=1;" edge="1" parent="1" source="SLpwjg63hdyZRQU6lq9K-10" target="SLpwjg63hdyZRQU6lq9K-16">
          <mxGeometry relative="1" as="geometry" />
        </mxCell>
        <mxCell id="SLpwjg63hdyZRQU6lq9K-10" value="&lt;b&gt;3. Trích xuất&lt;/b&gt;&lt;div&gt;&lt;b&gt;đặc trưng&lt;/b&gt;&lt;/div&gt;" style="rounded=1;whiteSpace=wrap;html=1;fillColor=#dae8fc;strokeColor=#6c8ebf;fontFamily=SVN-Segoe UI;" vertex="1" parent="1">
          <mxGeometry x="340" y="-400" width="89.9" height="40" as="geometry" />
        </mxCell>
        <mxCell id="SLpwjg63hdyZRQU6lq9K-27" style="edgeStyle=orthogonalEdgeStyle;rounded=0;orthogonalLoop=1;jettySize=auto;html=1;entryX=0;entryY=0.5;entryDx=0;entryDy=0;" edge="1" parent="1" source="SLpwjg63hdyZRQU6lq9K-15" target="SLpwjg63hdyZRQU6lq9K-17">
          <mxGeometry relative="1" as="geometry" />
        </mxCell>
        <mxCell id="SLpwjg63hdyZRQU6lq9K-15" value="5. Kết hợp&lt;div&gt;đặc trưng&lt;/div&gt;" style="rounded=1;whiteSpace=wrap;html=1;fillColor=#f8cecc;strokeColor=#b85450;fontFamily=SVN-Segoe UI;" vertex="1" parent="1">
          <mxGeometry x="559.92" y="-400" width="70" height="40" as="geometry" />
        </mxCell>
        <mxCell id="SLpwjg63hdyZRQU6lq9K-36" style="edgeStyle=orthogonalEdgeStyle;rounded=0;orthogonalLoop=1;jettySize=auto;html=1;entryX=0;entryY=0.5;entryDx=0;entryDy=0;" edge="1" parent="1" source="SLpwjg63hdyZRQU6lq9K-16" target="SLpwjg63hdyZRQU6lq9K-15">
          <mxGeometry relative="1" as="geometry" />
        </mxCell>
        <mxCell id="SLpwjg63hdyZRQU6lq9K-16" value="&lt;b&gt;4. Giảm chiều&lt;/b&gt;&lt;div&gt;&lt;b&gt;đặc trưng&lt;/b&gt;&lt;/div&gt;" style="rounded=1;whiteSpace=wrap;html=1;fillColor=#d5e8d4;strokeColor=#82b366;fontFamily=SVN-Segoe UI;" vertex="1" parent="1">
          <mxGeometry x="449.55" y="-400" width="89.9" height="40" as="geometry" />
        </mxCell>
        <mxCell id="SLpwjg63hdyZRQU6lq9K-42" style="edgeStyle=orthogonalEdgeStyle;rounded=0;orthogonalLoop=1;jettySize=auto;html=1;entryX=0;entryY=0.5;entryDx=0;entryDy=0;" edge="1" parent="1" source="SLpwjg63hdyZRQU6lq9K-17" target="SLpwjg63hdyZRQU6lq9K-41">
          <mxGeometry relative="1" as="geometry" />
        </mxCell>
        <mxCell id="SLpwjg63hdyZRQU6lq9K-17" value="&lt;b&gt;6. Tăng chiều&lt;/b&gt;&lt;div&gt;&lt;b&gt;đặc trưng&lt;/b&gt;&lt;/div&gt;" style="rounded=1;whiteSpace=wrap;html=1;fillColor=#d5e8d4;strokeColor=#82b366;fontFamily=SVN-Segoe UI;" vertex="1" parent="1">
          <mxGeometry x="649.92" y="-400" width="80" height="40" as="geometry" />
        </mxCell>
        <mxCell id="SLpwjg63hdyZRQU6lq9K-18" value="$$\mathbf{x}^{[1:\operatorname{length}] \times D}$$" style="text;html=1;align=center;verticalAlign=middle;whiteSpace=wrap;rounded=0;" vertex="1" parent="1">
          <mxGeometry x="134.5" y="-430" width="75.5" height="30" as="geometry" />
        </mxCell>
        <mxCell id="SLpwjg63hdyZRQU6lq9K-19" value="$$\mathbf{x}^{[1:M] \times D}$$" style="text;html=1;align=center;verticalAlign=middle;whiteSpace=wrap;rounded=0;" vertex="1" parent="1">
          <mxGeometry x="249.5" y="-430" width="60" height="30" as="geometry" />
        </mxCell>
        <mxCell id="SLpwjg63hdyZRQU6lq9K-22" value="$$\mathbf{x}^{[1:\operatorname{length}] \times n_{\text{join}} \times 6}$$" style="text;html=1;align=center;verticalAlign=middle;whiteSpace=wrap;rounded=0;" vertex="1" parent="1">
          <mxGeometry x="31" y="-430" width="89" height="30" as="geometry" />
        </mxCell>
        <mxCell id="SLpwjg63hdyZRQU6lq9K-28" value="$$\text{Model}_\theta$$" style="rounded=1;whiteSpace=wrap;html=1;fillColor=#f5f5f5;strokeColor=#666666;fontFamily=Segoe UI;fontStyle=1;align=center;spacingLeft=14;fontColor=#333333;arcSize=50;" vertex="1" parent="1">
          <mxGeometry x="440" y="-430" width="181" height="20" as="geometry" />
        </mxCell>
        <mxCell id="SLpwjg63hdyZRQU6lq9K-31" value="" style="rounded=1;whiteSpace=wrap;html=1;arcSize=7;fillColor=none;" vertex="1" parent="1">
          <mxGeometry x="270" y="-280" width="420.03" height="70" as="geometry" />
        </mxCell>
        <mxCell id="SLpwjg63hdyZRQU6lq9K-32" value="Training (Offline)" style="rounded=1;whiteSpace=wrap;html=1;fillColor=#f5f5f5;strokeColor=#666666;fontFamily=Segoe UI;fontStyle=1;align=center;spacingLeft=14;fontColor=#333333;" vertex="1" parent="1">
          <mxGeometry x="399" y="-290" width="181" height="30" as="geometry" />
        </mxCell>
        <mxCell id="SLpwjg63hdyZRQU6lq9K-34" value="Inference (Online)" style="rounded=1;whiteSpace=wrap;html=1;fillColor=#f5f5f5;strokeColor=#666666;fontFamily=Segoe UI;fontStyle=1;align=center;spacingLeft=14;fontColor=#333333;" vertex="1" parent="1">
          <mxGeometry x="419" y="-140" width="181" height="30" as="geometry" />
        </mxCell>
        <mxCell id="SLpwjg63hdyZRQU6lq9K-35" value="" style="rounded=1;whiteSpace=wrap;html=1;arcSize=7;fillColor=none;" vertex="1" parent="1">
          <mxGeometry x="279" y="-150" width="420.03" height="70" as="geometry" />
        </mxCell>
        <mxCell id="SLpwjg63hdyZRQU6lq9K-40" style="edgeStyle=orthogonalEdgeStyle;rounded=0;orthogonalLoop=1;jettySize=auto;html=1;entryX=0;entryY=0.5;entryDx=0;entryDy=0;" edge="1" parent="1" source="SLpwjg63hdyZRQU6lq9K-39" target="SLpwjg63hdyZRQU6lq9K-1">
          <mxGeometry relative="1" as="geometry" />
        </mxCell>
        <mxCell id="SLpwjg63hdyZRQU6lq9K-39" value="" style="shape=image;verticalLabelPosition=bottom;labelBackgroundColor=default;verticalAlign=top;aspect=fixed;imageAspect=0;image=https://www.file-extension.info/images/resource/formats/bvh.png;fontFamily=Segoe UI;" vertex="1" parent="1">
          <mxGeometry x="50.00000000000006" y="-404" width="48" height="48" as="geometry" />
        </mxCell>
        <mxCell id="SLpwjg63hdyZRQU6lq9K-41" value="$$\mathbf{x}^{[1:M] \times D}$$" style="rounded=0;whiteSpace=wrap;html=1;" vertex="1" parent="1">
          <mxGeometry x="760" y="-395" width="60" height="30" as="geometry" />
        </mxCell>
      </root>
    </mxGraphModel>
  </diagram>
</mxfile>
